
<svg xmlns="http://www.w3.org/2000/svg" xml:space="preserve" width="6.82666in" height="6.82666in" style="shape-rendering:geometricPrecision; text-rendering:geometricPrecision; image-rendering:optimizeQuality; fill-rule:evenodd; clip-rule:evenodd"
viewBox="0 0 6.82666 6.82666"
 xmlns:xlink="http://www.w3.org/1999/xlink">
 <defs>
  <style type="text/css">
   <![CDATA[
    .fil0 {fill:none}
    .fil1 {fill:#4F46E5;fill-rule:nonzero}
   ]]>
  </style>
 </defs>
 <g id="Layer_x0020_1">
  <metadata id="CorelCorpID_0Corel-Layer"/>
  <rect class="fil0" width="6.82666" height="6.82666" rx="0.853335" ry="0.853335"/>
  <g id="_213223696">
   <path id="_213224536" class="fil1" d="M3.41333 1.65976c0.444173,0 0.846319,0.180051 1.13742,0.471146 0.291094,0.291098 0.471146,0.693244 0.471146,1.13742 0,0.300807 -0.0829724,0.582728 -0.227331,0.824154 -0.138122,0.230992 -0.332453,0.424398 -0.564024,0.561287l0 0.00115354 -1.63443 0 0 -0.00116142c-0.231563,-0.13689 -0.425894,-0.330291 -0.564012,-0.561283 -0.144362,-0.241425 -0.227331,-0.523346 -0.227331,-0.82415 0,-0.444173 0.180051,-0.846319 0.471146,-1.13742 0.291098,-0.291094 0.693244,-0.471146 1.13742,-0.471146zm0.817209 3.10183l0 0.280638 -1.63443 0 0 -0.280638 1.63443 0zm0 0.387307l0 0.379854c0,0.0589094 -0.0477598,0.106669 -0.106669,0.106669l-1.42109 0c-0.0589094,0 -0.106669,-0.0477598 -0.106669,-0.106669l0 -0.379854 1.63443 0z"/>
   <path id="_213224824" class="fil1" d="M3.94424 5.58576c0,-0.0586811 -0.0475709,-0.106252 -0.106252,-0.106252 -0.388937,0 -0.374327,0.0125 -0.844102,-0.00959449 -0.0586811,-0.00275984 -0.108492,0.0425709 -0.111252,0.101252 -0.000417323,0.00878346 -0.000629921,0.0134134 -0.000629921,0.0138937 0,0.115748 0.0658465,0.217283 0.172295,0.287874 0.0935394,0.0620276 0.220614,0.100398 0.359031,0.100398 0.138169,0 0.265091,-0.0382598 0.358654,-0.10015 0.106043,-0.0701457 0.171815,-0.17148 0.172256,-0.287421z"/>
   <path id="_213225136" class="fil1" d="M3.30666 1.29793c0,0.0589094 0.0477598,0.106669 0.106669,0.106669 0.0589094,0 0.106669,-0.0477598 0.106669,-0.106669l0 -0.337925c0,-0.0589094 -0.0477598,-0.106669 -0.106669,-0.106669 -0.0589094,0 -0.106669,0.0477598 -0.106669,0.106669l0 0.337925z"/>
   <path id="_213224752" class="fil1" d="M1.48156 3.33636c0.0589094,0 0.106669,-0.0477598 0.106669,-0.106669 0,-0.0589094 -0.0477598,-0.106669 -0.106669,-0.106669l-0.337925 0c-0.0589094,0 -0.106669,0.0477598 -0.106669,0.106669 0,0.0589094 0.0477598,0.106669 0.106669,0.106669l0.337925 0z"/>
   <path id="_213224560" class="fil1" d="M5.68302 3.33636c0.0589094,0 0.106669,-0.0477598 0.106669,-0.106669 0,-0.0589094 -0.0477598,-0.106669 -0.106669,-0.106669l-0.337925 0c-0.0589094,0 -0.106669,0.0477598 -0.106669,0.106669 0,0.0589094 0.0477598,0.106669 0.106669,0.106669l0.337925 0z"/>
   <path id="_213224488" class="fil1" d="M1.97195 1.93915c0.0416496,0.0416496 0.109185,0.0416496 0.150835,0 0.0416496,-0.0416496 0.0416496,-0.109185 0,-0.150835l-0.238949 -0.238953c-0.0416496,-0.0416496 -0.109185,-0.0416496 -0.150835,0 -0.0416496,0.0416496 -0.0416496,0.109185 0,0.150835l0.238949 0.238953z"/>
   <path id="_213224008" class="fil1" d="M4.94283 4.91002c0.0416496,0.0416496 0.109185,0.0416496 0.150835,0 0.0416496,-0.0416496 0.0416496,-0.109185 0,-0.150835l-0.238949 -0.238949c-0.0416496,-0.0416496 -0.109185,-0.0416496 -0.150835,0 -0.0416496,0.0416496 -0.0416496,0.109185 0,0.150835l0.238949 0.238949z"/>
   <path id="_213223864" class="fil1" d="M4.70388 1.78831c-0.0416496,0.0416496 -0.0416496,0.109185 0,0.150835 0.0416496,0.0416496 0.109185,0.0416496 0.150835,0l0.238949 -0.238953c0.0416496,-0.0416496 0.0416496,-0.109185 0,-0.150835 -0.0416496,-0.0416496 -0.109185,-0.0416496 -0.150835,0l-0.238949 0.238953z"/>
   <path id="_213223816" class="fil1" d="M1.733 4.75919c-0.0416496,0.0416496 -0.0416496,0.109185 0,0.150835 0.0416496,0.0416496 0.109185,0.0416496 0.150835,0l0.238949 -0.238949c0.0416496,-0.0416496 0.0416496,-0.109185 0,-0.150835 -0.0416496,-0.0416496 -0.109185,-0.0416496 -0.150835,0l-0.238949 0.238949z"/>
  </g>
 </g>
</svg>
